<?xml version="1.0" encoding="UTF-8" standalone="no"?>
<svg
   xmlns:dc="http://purl.org/dc/elements/1.1/"
   xmlns:cc="http://creativecommons.org/ns#"
   xmlns:rdf="http://www.w3.org/1999/02/22-rdf-syntax-ns#"
   xmlns:svg="http://www.w3.org/2000/svg"
   xmlns="http://www.w3.org/2000/svg"
   xmlns:sodipodi="http://sodipodi.sourceforge.net/DTD/sodipodi-0.dtd"
   xmlns:inkscape="http://www.inkscape.org/namespaces/inkscape"
   version="1.0"
   width="885.40625"
   height="554.46875"
   id="svg2"
   sodipodi:version="0.32"
   inkscape:version="0.48.1 "
   sodipodi:docname="AJAX.svg">
  <metadata
     id="metadata352">
    <rdf:RDF>
      <cc:Work
         rdf:about="">
        <dc:format>image/svg+xml</dc:format>
        <dc:type
           rdf:resource="http://purl.org/dc/dcmitype/StillImage" />
      </cc:Work>
    </rdf:RDF>
  </metadata>
  <defs
     id="defs350" />
  <sodipodi:namedview
     inkscape:window-height="1004"
     inkscape:window-width="1280"
     inkscape:pageshadow="2"
     inkscape:pageopacity="0.0"
     borderopacity="1.0"
     bordercolor="#666666"
     pagecolor="#ffffff"
     id="base"
     inkscape:zoom="0.6201174"
     inkscape:cx="205.81991"
     inkscape:cy="306.12153"
     inkscape:window-x="-8"
     inkscape:window-y="-8"
     inkscape:current-layer="svg2"
     showgrid="false"
     inkscape:window-maximized="1"
     fit-margin-top="0"
     fit-margin-left="0"
     fit-margin-right="0"
     fit-margin-bottom="0" />
  <path
     style="fill:#ffffff;fill-opacity:1;stroke:#003399;stroke-width:2.5;stroke-miterlimit:4;stroke-opacity:1;stroke-dasharray:none"
     d="m 78.218745,1.1875 -1.09375,0.78125 -0.3125,0.78125 2.34375,4.6875 1.09375,2.5 -1.71875,3.4375 0,2.1875 0.625,1.40625 -0.78125,1.71875 0.46875,3.125 0.9375,1.25 -0.15625,1.25 -1.40625,0.15625 -0.625,-1.875 -1.09375,-2.34375 -1.718745,-1.40625 0.3125,-2.03125 2.187495,-0.46875 -0.3125,-1.71875 -0.3125,-1.09375 -2.031245,1.25 -1.25,1.09375 0,2.34375 L 71.1875,18.375 67.90625,17.4375 65.09375,16.03125 62.125,15.40625 57.75,13.375 54.625,11.5 51.96875,9 49.625,6.1875 47.59375,5.71875 l -2.1875,9.0625 1.71875,3.125 0,7.65625 -0.625,2.8125 1.40625,6.875 2.65625,2.65625 -4.21875,0.625 -0.15625,3.59375 2.5,1.09375 -1.5625,3.90625 -2.65625,0.3125 -0.3125,2.8125 2.1875,2.8125 1.71875,-0.9375 1.84375,1.4375 -5.59375,2 -2.1875,6.25 L 39,71.5 l -3.125,6.250003 -4.84375,13.59375 -6.25,13.124997 -7.8125,12.1875 -1.875,2.8125 -0.78125,8.28125 -1.25,5.78125 2.15625,4.34375 -1.53125,4.5625 -0.15625,7.1875 -5,11.40625 -2.96875,2.5 -0.3125,1.09375 -1.71875,0.78125 -1.40625,4.0625 -0.78125,3.125 2.65625,4.0625 4.5002447,4.31191 569.1270153,-0.10079 0.74774,-8.42987 -1.09375,-2.34375 0.9375,-2.96875 0.78125,-2.8125 1.40625,-2.5 -0.625,-3.28125 -0.625,-3.4375 0.46875,-1.71875 1.875,-2.34375 0.15625,-2.65625 -0.78125,-1.25 0.625,-2.5 0.46875,-3.125 2.65625,-5.46875 2.8125,-6.5625 0.15625,-2.1875 -0.3125,-0.9375 -0.78125,0.46875 -4.0625,6.09375 -2.65625,3.90625 -1.875,1.71875 -0.78125,2.1875 -1.40625,0.78125 -1.09375,1.875 -1.40625,-0.3125 -0.15625,-1.71875 1.25,-2.34375 2.03125,-4.53125 1.71875,-1.5625 0.96875,-2.03125 0.0937,0.0625 3.625,-7.875 0.9375,-3.90625 1.875,-4.21875 0.78125,-0.15625 1.09375,1.5625 0.625,0 4.375,-2.34375 1.40625,1.5625 0.46875,0.15625 1.25,-1.09375 1.09375,-2.96875 2.34375,-0.78125 6.71875,-0.625 1.875,-2.5 5,-0.15625 5.625,1.25 1.71875,0 3.125,-1.40625 2.1875,0.15625 2.03125,-0.625 3.59375,0.46875 0.78125,0.3125 1.25,-0.3125 -1.25,-0.9375 -1.25,-0.625 -3.125,-2.96875 0,-6.718747 -1.40625,-0.46875 -1.09375,1.09375 -5.9375,1.5625 -1.875,0.46875 -2.8125,-0.78125 -0.46875,-0.3125 0,-5.46875 -1.40625,-0.15625 -2.5,1.25 -4.375,1.875 -6.40625,0.3125 -3.28125,1.09375 -3.90625,3.437497 -1.5625,0.9375 -1.09375,0 -1.25,0.78125 -1.5625,-0.46875 -1.5625,-1.25 -1.40625,0.9375 -3.75,0.15625 -2.65625,-2.656247 -1.40625,-2.96875 -1.40625,-1.09375 -3.125,-0.9375 -2.1875,0 -1.25,-1.25 -3.4375,2.8125 -0.9375,1.09375 -0.78125,-0.46875 0.3125,-2.5 2.34375,-3.125 0.46875,-2.34375 2.1875,-0.78125 1.40625,-2.96875 3.59375,-0.9375 0.3125,-0.9375 -1.09375,-1.09375 -4.53125,0.46875 -4.21875,2.34375 -2.1875,2.1875 -1.25,1.71875 -1.71875,0.78125 -1.875,2.8125 -0.15625,1.25 -4.21875,2.03125 -2.34375,1.875 -5.78125,0.9375 -0.625,0.625 0,0.9375 -3.4375,2.187497 -2.65625,0.78125 -1.6875,0.96875 -0.0937,0.0312 0.0625,0.0625 -0.46875,1.125 -1.09375,-0.15625 -0.625,-1.09375 -2.65625,-0.78125 -1.09375,0.15625 -1.71875,0.9375 -0.9375,-0.625 0.625,-1.875 1.875,-2.968747 1.09375,-1.09375 -1.875,-1.40625 -2.03125,0.78125 -2.8125,1.875 -7.1875,3.124997 -2.8125,0.625 -2.8125,-0.46875 -0.53125,-0.46875 0.25,-0.25 -0.65625,-0.531247 3.28125,-2.96875 1.25,-0.15625 4.375,-4.84375 1.71875,-0.78125 2.1875,-3.75 2.34375,-3.4375 2.96875,-2.5 4.625,-1.9375 8.9375,-3.9375 3.78125,-1.78125 0.59375,-2.187503 -4.28125,0.34375 -0.6875,1.062503 -0.625,0 -1.71875,-2.968753 -8.59375,0.3125 -0.9375,0.78125 -0.9375,0 -0.46875,-1.25 -0.78125,-1.71875 -2.5,0.46875 -3.125,3.125 -1.5625,0.78125 -2.96875,0 -2.5,-0.9375 0,-2.03125 -1.25,-0.15625 -0.46875,0.46875 -2.5,-1.25 -0.46875,-2.8125 -1.40625,0.46875 -0.46875,0.9375 -2.34375,-0.46875 -5.15625,-2.34375 -3.75,-2.5 -2.8125,0 -1.25,-0.9375 -2.1875,0.625 -1.09375,1.09375 -0.3125,1.25 -4.6875,0 0,-2.03125 -6.09375,-0.3125 -0.3125,-1.40625 -4.6875,0 -1.5625,-1.5625 -1.40625,-5.9375 -0.78125,-5.3125 -1.875,-0.78125 -2.1875,-0.46875 -0.625,0.15625 -0.3125,7.96875 -29.125,-0.03125 1.75,5.25 -1.875,-5.3125 -28.40625,-0.53125 -17.96875,-0.625 -25.625,-1.25 -24.125,-1.8125 -30.875,-3.1875 -28.28125,-3.4375 -28.28125,-3.90625 -31.25,-5.15625 -17.8125,-3.28125 -31.625,-6.71875 -13.4375,-2.5625 0.0312,-0.09375 -15.59375,-3.59375 -22.1875,-5.46875 -19.375,-5.46875 -8.281255,-1.875 -9.375,-2.65625 -4.21875,-1.40625 z M 73,6.5625 71.5,8.125 71.03125,6.8125 69.09375,6.96875 69.5625,9.375 l 1.46875,2.1875 0.71875,-0.625 0.3125,-1.40625 1.625,0.5625 c 0,0 -1.40625,2.1875 -1.40625,2.5 0,0.3125 0.875,0.21875 0.875,0.21875 l 1.3125,-0.375 0.71875,-1.96875 -0.625,-0.78125 1.46875,-1.625 -0.78125,-1.5 z M 849.625,30.40625 847.90625,32.125 844,34.9375 l 0,0.9375 -0.78125,0.78125 -2.65625,-0.625 -1.25,-2.1875 0,-1.09375 -1.25,-0.15625 -1.25,0 -2.03125,4.0625 -2.8125,8.59375 -1.71875,4.6875 0.15625,4.6875 0.15625,1.40625 -0.78125,2.65625 L 829,59.625 l 0,5.78125 1.875,2.34375 -1.40625,3.90625 -2.5,4.531253 -0.78125,5.3125 0,2.5 -1.46875,-0.40625 -2.34375,0.34375 0.0625,0.21875 -0.78125,0 -0.625,1.5625 -0.625,-0.46875 -0.9375,-0.9375 -1.40625,1.875 -0.9375,5.28125 0,-0.125 -26.25,6.96875 -7.03125,1.937497 -4.375,1.40625 -3.125,-0.15625 -5.3125,1.25 -2.96875,1.1875 -2.34375,1.78125 -2.03125,2.34375 -2.65625,3.59375 -2.8125,4.375 -1.40625,2.8125 -0.625,0.78125 -5.625,5.3125 0.15625,2.5 0.78125,1.09375 1.71875,0.78125 1.71875,0 0,1.40625 -1.09375,2.03125 0.3125,1.40625 1.40625,2.03125 -0.15625,2.1875 -1.875,1.09375 -2.03125,0 -1.5625,1.875 -1.71875,3.125 -2.03125,1.71875 -5,0.46875 -2.5,1.09375 -2.03125,1.25 -1.5625,-0.15625 -1.875,-1.25 -6.09375,0.15625 -3.125,0.46875 -3.90625,1.25 -4.21875,1.40625 -2.8125,1.71875 1.875,5.9375 1.71875,0.15625 1.25,2.96875 0.15625,0.9375 -1.09375,0.9375 -2.03125,2.65625 -0.46875,1.5625 -1.875,1.71875 -1.71875,1.09375 -0.9375,1.5625 -1.25,1.09375 -2.59375,1.75 0,0.0937 -3.1219,6.61117 102.23627,-0.60472 4.37751,-2.70945 6.91437,-4.047 0.78125,0.625 2.65625,-1.40625 5,-1.09375 8.125,-3.59375 -0.0312,-0.15625 2.375,-0.78125 2.34375,-1.875 1.09375,-1.71875 1.25,0.15625 2.65625,-1.40625 0.15625,-0.0937 2.5,-1.3125 -0.46875,-2.1875 0.78125,-1.40625 2.8125,-1.40625 0.78125,2.96875 -0.46875,1.71875 -2.34375,1.40625 0,0.9375 1.875,-1.40625 3.75,-4.375 3.75,-1.875 4.0625,-1.40625 -0.3125,-2.34375 -0.9375,-2.8125 -1.875,-2.34375 -1.71875,-0.78125 -2.03125,0.15625 -0.46875,0.46875 0.9375,1.25 1.40625,-0.78125 2.03125,1.5625 0.78125,2.65625 -1.71875,1.71875 -2.1875,0.9375 -3.4375,-0.46875 -3.75,-5.78125 -2.1875,-2.5 -1.71875,0 -1.09375,0.78125 -1.875,-2.5 0.3125,-1.40625 2.34375,-5 -2.78125,-4.28125 -3.625,1.625 3.625,-1.65625 0.28125,-1.46875 1.0625,-3.1875 -0.0312,0 1.46875,-7.125 0.15625,-4.21875 1.40625,-1.25 -0.9375,-3.125 2.96875,-3.4375 1.5625,1.40625 1.25,-0.46875 5.15625,-2.96875 0.3125,-2.8125 2.8125,-0.46875 1.5625,-2.5 -0.15625,-1.562497 -0.3125,-2.96875 0.78125,-1.25 -0.3125,-1.09375 -1.25,-1.40625 2.03125,-1.25 1.71875,3.125 1.40625,-0.3125 0.3125,1.25 0,1.5625 1.875,0.15625 0.46875,-2.65625 0.46875,-0.625 -1.5625,-1.40625 0.9375,-1.40625 2.34375,-1.40625 0.9375,-1.40625 1.71875,-0.15625 c 0,0 0.3125,2.03125 0.9375,2.03125 0.625,0 1.25,0 1.25,0 l 4.6875,-5.3125 3.28125,-2.96875 1.875,-0.625 2.03125,-4.53125 0,-1.875 -2.1875,-3.593753 -1.875,-2.03125 -2.65625,0.15625 0.46875,1.09375 -0.15625,0.46875 -0.78125,0 -2.8125,-2.1875 -0.15625,-4.6875 -0.78125,-1.875 -5.78125,0 -8.75,-28.90625 -1.875,-0.9375 -5.78125,-2.34375 -1.40625,-0.15625 z m -288.4375,36.875 -2.1875,0.5625 -5.1875,3.75 -2.125,0.75 -1.75,2.000003 1.53125,1.09375 2,-0.875 3.1875,-1.875003 5,-4.96875 z m 308.4375,23.031253 -1.9375,0.71875 -1.34375,2.1875 1.71875,1.78125 c -10e-6,0 1.25,0.0937 1.25,-0.21875 -10e-6,-0.3125 0.25,-1.96875 0.25,-1.96875 l 0.84375,-0.78125 z m -8.28125,7.125 -1.46875,1.46875 1.71875,2.749997 1.625,-0.875 -0.53125,-2.343747 z m -225.0625,5.999997 -2.125,0.25 -1.5625,0.15625 -0.3125,1.09375 0.9375,0.46875 0.625,2.40625 3.125,0.15625 1.25,-1.15625 c 0,0 -0.0625,-1.40625 -0.375,-1.5625 -0.3125,-0.15625 -1.5625,-1.8125 -1.5625,-1.8125 z m -15.71875,9 -2.8125,1.71875 -2.8125,2.1875 0.3125,3.4375 0.9375,0.3125 2.03125,0.46875 0.46875,0.78125 -2.5,0.78125 -2.5,0.3125 -1.40625,1.71875 -0.3125,2.03125 0.3125,1.5625 0.3125,5.3125 -3.4375,2.03125 -0.625,-0.15625 0,-4.0625 1.25,-2.34375 0.625,-2.34375 -0.78125,-0.78125 -1.875,0.78125 -0.9375,4.0625 -2.65625,1.09375 -1.71875,1.875 -0.15625,0.9375 0.625,0.78125 -0.625,2.5 -2.1875,0.46875 0,1.09375 0.78125,2.34375 -1.09375,5.9375 -1.5625,3.90625 0.625,4.53125 0.46875,1.09375 -0.78125,2.34375 -0.3125,0.78125 -0.3125,2.65625 3.4375,5.78125 2.8125,6.25 4.49631,5.03292 44.18701,1.6126 5.91043,-6.14552 1.03125,0.59375 0.15625,0.625 0.78125,0.15625 1.875,-0.9375 -0.3125,-9.21875 -3.125,-7.96875 -2.1875,-8.75 -2.34375,-3.125 -2.5,-1.71875 -1.5625,1.09375 -3.75,1.71875 -1.875,4.84375 -2.65625,3.59375 -1.09375,0.625 -1.40625,-0.625 c 0,-1e-5 -2.50005,-1.40625 -2.34375,-2.03125 0.15619,-0.62501 0.46875,-4.84375 0.46875,-4.84375 l 3.28125,-1.25 0.78125,-3.28125 0.625,-2.5 2.34375,-1.5625 -0.3125,-9.6875 -1.5625,-2.1875 -1.25,-0.78125 -0.78125,-2.03125 0.78125,-0.78125 1.5625,0.3125 0.15625,-1.5625 -2.34375,-2.1875 -1.25,-2.5 -2.5,0 -4.375,-1.40625 -5.3125,-3.28125 -2.65625,0 -0.625,0.625 -0.9375,-0.46875 z m 239.625,48.3125 -0.46875,1.65625 -2.09375,0.65625 -0.4375,0.5625 3.75,-0.125 1.21875,-0.4375 -1,-2.21875 -0.96875,-0.0937 z m -9.40625,0.5625 -2.21875,2.53125 1.125,0.875 2.09375,-1 2.3125,-0.96875 -1.75,-1.4375 z"
     id="Red Stripe"
     inkscape:connector-curvature="0"
     sodipodi:nodetypes="cccccccccccccccccccccccccccccccccccccccccccccccccccccccccccccccccccccccccccccccccccccccccccccccccccccccccccccccccccccccccccccccccccccccccccccccccccccccccccccccccccccccccccccccccccccccccccccccccccccccccccccccccccccccccccccccccccccccccccccccccccccccccccccccccccccccccccccccccccccccccccsccccccccccccccccccccccccccccccccccccccccccccccccccccccccccccccccccccccccccccccccccccccccccccccccccccccccccccccccccccccccccccccccccccccccccccccccccccccccccccccccccccccccccccscccccccccccccccccccccccccccccccccccccccccccccccccccccsccccccccccccccccccccccccccccccccccccccccccccccccccccccccccccccccccccccccccccccccccccccccccccccc" />
  <path
     style="fill:#003399;fill-opacity:1"
     d="m 4.46875,177.84375 1.09375,2.875 1.09375,3.4375 -0.3125,6.25 L 4.625,193.375 4,199 l -0.9375,3.59375 1.71875,3.75 2.65625,4.375 2.1875,4.6875 1.25,3.90625 -0.3125,3.125 -0.3125,0.46875 0,2.03125 5.46875,6.09375 -0.46875,2.34375 -0.625,2.1875 -0.625,1.875 0.15625,7.96875 2.03125,3.59375 1.875,2.5 2.65625,0.46875 0.9375,2.65625 -1.09375,3.4375 -2.03125,1.5625 -1.09375,0 -0.78125,3.75 0.46875,2.8125 3.125,4.21875 1.5625,5.15625 1.40625,4.53125 1.25,2.96875 3.28125,5.625 1.40625,2.5 0.46875,2.8125 1.5625,0.9375 0,2.34375 -0.78125,1.875 -1.71875,6.875 -0.46875,1.875 2.34375,2.65625 4.0625,0.46875 4.375,1.71875 3.75,2.03125 2.8125,0 2.8125,2.96875 2.5,4.6875 1.09375,2.1875 3.75,2.03125 4.6875,0.78125 1.40625,2.03125 0.625,3.125 -1.40625,0.625 0.3125,0.9375 3.125,0.78125 2.65625,0.15625 2.8125,4.53125 3.75,4.0625 0.78125,2.1875 2.499995,4.0625 0.3125,3.125 0,9.0625 0.46875,1.71875 9.6875,1.40625 19.062505,2.65625 14.0625,1.5625 4,-0.78125 -3.65625,0.875 -2.53125,2.09375 -0.3125,1.40625 0.46875,0.9375 6.8125,3.84375 613.53125,0 0.59375,-0.875 2.65625,-2.65625 2.03125,-3.4375 2.34375,-0.625 1.09375,-2.65625 1.5625,-0.78125 0.46875,-6.09375 2.5,-5.9375 5.1875,-5.21875 5.59375,-2.125 4.53125,-0.46875 0.46875,-2.34375 1.875,-6.25 3.28125,-4.53125 6.25,-5.15625 5,-2.34375 2.65625,-0.625 1.09375,0.46875 1.25,0 2.96875,-4.6875 1.875,-3.4375 -1.25,0.46875 -2.1875,2.1875 -0.625,-1.5625 -4.0625,0 1.875,-6.09375 -0.78125,-1.25 -1.875,0 0,-0.9375 -0.3125,-1.25 1.5625,1.25 1.40625,0.15625 2.34375,0.3125 3.59375,-1.5625 1.25,-2.8125 0.625,-2.03125 2.5,-1.25 0.3125,-4.0625 L 797.75,299 l 2.34375,-0.15625 -0.625,-2.1875 -2.34375,-2.34375 -3.4375,-6.25 -1.65625,-4.53125 -4.75,1.5625 4.71875,-1.65625 -3.9375,-6.78125 -1.09375,0.15625 -3.125,0.625 -2.5,0.46875 -0.3125,-0.46875 2.1875,-1.40625 -0.15625,-2.1875 -1.25,-1.5625 -1.40625,-1.09375 0,-1.09375 -1.875,-1.5625 0,-0.9375 3.125,1.09375 0.15625,-1.71875 -1.25,-2.03125 -0.15625,-2.1875 -0.9375,-0.9375 0.46875,-4.375 -1.25,-1.25 -3.125,-0.625 -2.5,-2.1875 -5,-0.3125 -1.8125,-1.5 4.15625,-0.0625 2.96875,0.9375 2.03125,0.3125 0.9375,-2.03125 -1.40625,-2.03125 0,-1.71875 -2.34375,-2.03125 -2.03125,-5.3125 1.25,-5.15625 -0.15625,-2.03125 -1.25,-1.25 c 0,-1e-5 1.40625,-1.5625 1.40625,-2.1875 -10e-6,-0.62501 0.46875,-2.03125 0.46875,-2.03125 l 1.875,-1.25 1.875,-1.5625 0.46875,0.9375 -1.40625,1.5625 -1.25,3.59375 0.3125,1.09375 1.71875,0.3125 0.46875,5.3125 -2.03125,0.9375 0.3125,3.4375 0.46875,-0.15625 1.09375,-1.875 1.5625,1.71875 -1.5625,1.25 -0.3125,3.28125 2.5,3.28125 3.75,0.46875 1.5625,-0.78125 3.125,5 1.71875,0.46875 0,3.4375 -2.1875,4.6875 -0.46875,6.71875 1.40625,3.28125 1.40625,0.15625 1.875,-4.0625 0.78125,-3.4375 0.15625,-6.875 2.96875,-4.6875 L 796.5,246.5 l 0,-5.40625 0,-0.0625 -0.0312,0 -2.15625,-7.03125 -0.9375,0.46875 -3.4375,-2.34375 -1.71875,-4.53125 -1.875,-3.4375 -2.1875,-0.9375 -2.03125,-3.4375 0.78125,-2.03125 0.78125,-2.03125 -0.59375,2.5 1.0625,2.1875 3.125,2.8125 4.6875,2.1875 3.90625,0.625 0.15625,1.40625 -0.78125,0.9375 0.3125,2.65625 0.78125,0 2.03125,-2.34375 0.78125,-4.6875 2.65625,-3.90625 2.96875,-6.25 1.09375,-5.3125 -0.625,-1.09375 -0.15625,-9.0625 -1.5625,-3.28125 -1.09375,0.78125 -2.65625,0.3125 -0.46875,-0.46875 1.09375,-0.9375 2.03125,-1.875 0.0625,-1.0625 -0.375,-3.3125 0.5625,3.21875 1.46875,0.53125 3.90625,-1.09375 5.625,-1.875 2.5,-0.9375 6.875,-5.15625 3.75,-2.8125 2.4375,-2.5625 -5.5625,0 -1.71875,1.625 -7.65625,3.75 -2.1875,-0.15625 -1.5625,-0.625 -1.09375,0.625 -2.1875,2.5 -1.40625,1.25 -1.25,0.3125 -0.3125,-1.25 1.875,-1.71875 0.21875,-1.40625 4.78125,-3.28125 1.78125,-1.625 -109.59375,0 -2.34375,2.40625 -1.25,0.46875 -4.03125,2.875 -0.0312,-0.1875 -6.875,4.03125 -3.75,2.1875 -3.28125,3.59375 -3.90625,3.75 -3.125,0.78125 -2.8125,0.46875 -5.3125,2.5 -2.03125,0.15625 -3.28125,-2.96875 -5,0.625 -2.5,-1.40625 -2.21875,-1.28125 -0.0937,-0.0312 -0.96875,-0.875 0.15625,-1.40625 2.03125,-3.59375 1.9375,-1.6875 -0.21875,-4.875 1.53125,-1.5625 1.0625,-0.3125 0.21875,-3.4375 0.0937,-0.21875 -52.25,0 0.4375,1.46875 -0.78125,4.53125 -0.9375,5.78125 -2.34375,5 -0.3125,2.65625 -2.96875,3 -0.71875,0.75 -0.4375,0 -2.75,1.5625 -2.03125,1.875 -1.09375,0.3125 -1.40625,-0.9375 -2.96875,-0.875 -1.09375,-0.6875 -0.78125,-2.5 -1.25,-3.59375 -1.5625,-1.71875 -1.40625,-2.5 -0.21875,-5.3125 -0.0625,0 0.125,-3.90625 -1.5625,-4.375 -0.0625,-0.53125 -574.46874,0 z m 780.625,36 -1.15625,0.6875 0,-0.0625 0.0625,0 z M 782.4375,250 l -1.78125,0.46875 1.09375,2.4375 0.15625,1.71875 1.09375,1.78125 c -10e-6,-10e-6 0.84375,-0.84375 0.84375,-1.15625 0,-0.31251 -0.6875,-2.96875 -0.6875,-2.96875 z m 18.59375,47.65625 -0.6875,0.25 0.625,1.78125 1.40625,2.28125 0.625,5.9375 -0.15625,1.9375 -1.5,0.625 -3.03125,2.5 -2.5,2.4375 1,0.15625 1.09375,-1.1875 2.75,-2.34375 3.28125,-1.46875 0.15625,-3.28125 -0.40625,-4.3125 z m -763.0625,22.5 -1.15625,0.625 0.78125,1.40625 1.5625,1.5625 4.375,0.25 0.875,-0.625 -3,-1.1875 z m -3.03125,0.625 -3.21875,0.0937 0.625,1.40625 0.5625,1.15625 3.125,0.0937 0.15625,-1.25 -1.25,-1.5 z m 22.90625,17.8125 -1.03125,0.15625 0,1.1875 1.71875,2.25 0.78125,0.9375 1.5,0.5625 0.53125,-1.40625 -0.9375,-1.71875 z m -2.4375,9.6875 -0.46875,0.0937 c 0,0 0,1.70314 0,2.09375 0,0.39063 0.71875,1.81251 0.71875,1.8125 l 1.25,1.15625 1.40625,-0.21875 -1.1875,-1.875 -1.71875,-3.0625 z"
     id="Black Stripe"
     inkscape:connector-curvature="0"
     sodipodi:nodetypes="ccccccccccccccccccccccccccccccccccccccccccccccccccccccccccccccccccccccccccccccccccccccccccccccccccccccccccccccccccccccccccccccccccccccccccccccccccccccccccccccccccccccccccccccccccccccccccccccccccccccccccccccccccccccccccccccccccccccccccccccccccccccccccccccccccccccccccccccccccccccccccccccccccccccccccccccccccscccccccccccccccccccccccccccccccccccccccccccccscccccc" />
  <path
     style="fill:#de0000;fill-opacity:1"
     d="m 125.34375,377.84375 11.46875,6.46875 11.71875,7.34375 14.21875,8.28125 16.25,9.6875 11.875,2.34375 25.84375,3.375 14.9375,1.9375 1.25,-9.6875 16.09375,2.5 13.125,1.71875 -0.0312,-0.125 1.75,0.4375 2.5,2.8125 1.40625,4.21875 4.53125,2.1875 1.25,3.125 6.875,7.65625 1.25,1.5625 4.84375,2.03125 1.09375,2.03125 1.5625,0.9375 0.46875,2.65625 3.125,6.25 0,7.8125 2.1875,4.53125 7.1875,7.5 5,2.03125 1.71875,1.875 0,0.625 3.75,2.1875 1.875,0.625 1.71875,1.09375 2.5,0.9375 2.34375,-2.34375 4.21875,-5.9375 0.9375,-3.59375 2.1875,-3.125 3.4375,-1.40625 4.375,-1.71875 2.96875,2.1875 7.1875,0.625 6.5625,1.09375 2.5,2.03125 0,1.09375 2.5,2.96875 5.78125,5.15625 0.15625,1.40625 1.71875,1.875 0.78125,4.0625 5.15625,11.875 -0.15625,1.875 4.0625,2.5 3.4375,6.40625 3.28125,4.21875 3.125,1.25 1.5625,2.1875 -1.25,4.21875 0.625,0.9375 1.25,0.625 -0.3125,3.28125 -0.625,0.625 0.625,2.1875 3.125,1.875 1.25,6.25 2.03125,3.75 7.34375,3.28125 5,1.09375 4.0625,2.96875 3.125,0.625 1.25,-0.46875 5.3125,1.09375 5.46875,3.75 2.96875,-1.875 0.9375,-1.40625 -1.71875,-2.65625 -0.9375,-5.9375 -1.71875,-6.71875 -0.78125,-2.34375 0.78125,-4.375 1.09375,-3.75 1.25,-4.375 1.40625,-5.3125 -2.1875,-1.875 0.9375,-1.875 3.90625,-0.3125 3.75,-5.3125 3.28125,-0.625 5.625,-3.4375 1.71875,-1.40625 6.09375,-3.28125 5.46875,-2.34375 5.15625,-3.125 2.65625,-2.03125 5.46875,-5.15625 1.25,-0.78125 2.03125,-1.40625 2.5,-1.875 0.9375,-1.875 9.53125,-4.375 6.09375,-1.65625 0.15625,-0.0312 0,-0.0312 4.375,-1.40625 7.8125,-0.3125 10,3.4375 6.25,1.09375 3.59375,-1.40625 3.125,1.09375 3.125,0.9375 0.78125,-2.03125 -3.125,-1.09375 -2.5,0.46875 -2.65625,-1.5625 c 10e-6,-10e-6 0.15625,-1.25 0.78125,-1.40625 0.62501,-0.15626 2.96875,-0.9375 2.96875,-0.9375 l 1.71875,1.40625 1.71875,-0.9375 3.125,0.625 1.40625,2.34375 0.3125,2.1875 4.375,0.3125 1.71875,1.71875 -0.78125,1.5625 -1.25,0.78125 1.5625,1.5625 8.125,3.4375 3.4375,-1.25 0.9375,-2.34375 2.5,-0.625 1.71875,-1.40625 1.25,0.9375 0.78125,2.8125 -2.1875,0.78125 0.625,0.625 3.28125,-1.25 2.1875,-3.28125 0.78125,-0.46875 -2.03125,-0.3125 0.78125,-1.5625 -0.15625,-1.40625 2.03125,-0.46875 1.09375,-1.25 0.625,0.78125 c 10e-6,-10e-6 -0.15625,2.96875 0.625,2.96875 0.78126,-10e-6 4.0625,0.625 4.0625,0.625 l 3.90625,1.875 0.9375,1.40625 2.8125,0 1.09375,0.9375 2.1875,-2.96875 0,-1.40625 -1.25,0 -3.28125,-2.65625 -5.625,-0.78125 -3.125,-2.1875 1.09375,-2.65625 2.1875,0.3125 0.15625,-0.625 -1.71875,-0.9375 0,-0.46875 3.125,0 1.71875,-2.96875 -1.25,-1.875 -0.3125,-2.65625 -1.40625,0.15625 -1.875,2.03125 -0.625,2.5 -2.96875,-0.625 -0.9375,-1.71875 1.71875,-1.875 1.9375,-1.71875 0.71875,-0.59375 0.0312,0.0937 1.0625,-0.75 2.5,-4.0625 1.71875,0.78125 6.5625,-1.875 2.03125,0.3125 1.40625,0.78125 5,0 1.125,-1.21875 -0.0312,-0.21875 0.15625,0 0,0.0312 2.65625,0 0.625,0.15625 1.25,-2.65625 1.40625,-4.21875 2.1875,0.625 2.96875,5.78125 0,0.9375 -2.65625,1.875 2.65625,0.3125 6,-2.375 0.0625,0 3.3125,-0.59375 5.78125,-2.03125 5.78125,-0.46875 4.21875,-0.625 7.34375,1.71875 7.8125,3.75 1.5625,1.40625 2.8125,1.09375 1.5625,1.875 0.3125,2.65625 3.125,-1.25 3.75,0 3.4375,-1.875 3.59375,-3.4375 2.96875,0.15625 0.46875,-1.09375 -0.78125,-0.9375 0.15625,-1.875 3.90625,-0.78125 2.5,0 2.8125,1.40625 4.0625,1.40625 2.34375,3.59375 2.65625,0.9375 1.09375,3.28125 3.28125,1.5625 1.5625,2.5 1.875,0.625 5,1.25 1.25,2.96875 2.96875,3.59375 0,9.21875 -1.40625,4.53125 0.3125,2.65625 1.25,4.6875 1.71875,3.90625 0.78125,-0.46875 1.40625,-4.375 -2.5,-0.9375 -0.3125,-0.625 1.5625,-0.625 4.375,0.9375 0.15625,1.5625 -3.125,5.3125 -2.03125,2.34375 3.4375,3.59375 2.5,2.96875 2.8125,5.15625 2.8125,3.75 2.03125,4.84375 1.71875,0.3125 1.5625,-2.03125 1.71875,1.09375 2.5,3.90625 0.625,3.4375 2.96875,4.21875 0.78125,-1.25 3.75,0.3125 3.4375,2.1875 3.28125,5 0.78125,3.28125 0.3125,2.8125 1.09375,0.9375 1.25,0.46875 2.34375,-0.9375 1.40625,-1.5625 3.75,-0.15625 2.96875,-1.40625 2.65625,-3.125 -0.46875,-1.875 -0.3125,-2.34375 0.625,-1.875 -0.3125,-1.875 2.34375,-1.25 0.3125,-3.28125 -0.625,-1.71875 -0.46875,-11.5625 -1.25,-7.34375 -4.375,-7.96875 -3.4375,-5.625 -2.5,-5.15625 -2.8125,-2.8125 -2.8125,-7.1875 0.78125,-1.25 1.09375,-1.25 -1.5625,-2.8125 -3.90625,-3.59375 -4.6875,-5.3125 -3.59375,-6.09375 -5.15625,-9.0625 -3.59375,-9.40625 -2.03125,-7.9375 -0.1875,0 -0.75,-6.09375 2.1875,-9.6875 1.40625,-4.0625 -0.46875,-2.5 3.90625,-6.71875 -0.59375,-1.5625 2,-1.25 4.84375,-5.3125 -0.9375,-3.125 2.8125,-0.15625 3.4375,-3.28125 1.5625,-0.78125 1.59375,-2.40625 -613.53124,0 z m 311.71875,121.625 -3.0625,3.4375 -3.34375,5.21875 -3.21875,6.65625 -1.46875,7.96875 0.53125,6.78125 2.65625,6.96875 0.5625,6.875 0.84375,-0.25 -0.15625,-1.40625 -0.46875,-5 -2.5,-6.9375 -0.84375,-5.9375 0.3125,-5 1.9375,-6.40625 4.21875,-6.34375 4.625,-6.40625 -0.625,-0.21875 z m 322.09375,29.125 -0.6875,0.46875 -0.9375,2.75 -1.40625,4.4375 -3.125,5.09375 -4.21875,4.0625 -3.28125,1.875 -2.4375,1.46875 1.1875,1.03125 2.65625,-2.03125 5.15625,-4.0625 3.59375,-3.75 2.40625,-6.40625 0.9375,-1.65625 0.15625,-3.28125 z m -21.875,20.3125 -2.25,1.5625 -1.40625,2.28125 -1.25,0.21875 -2.34375,0.625 0.84375,0.875 2.28125,-1.1875 4.0625,-1.40625 3.34375,-1.15625 -0.375,-1.03125 -1.65625,-0.3125 -1.25,-0.46875 z"
     id="Green Stripe"
     inkscape:connector-curvature="0" />
  <g
     transform="translate(-66.991795,-156.62874)"
     id="Labels_State_Names" />
</svg>
